<svg width="120" height="100" viewBox="0 0 120 100" fill="none" xmlns="http://www.w3.org/2000/svg">
    <g id="Triangles" clip-path="url(#clip0_2_2)">
        <g id="darkGroup">
            <path 
                id="dark1" 
                opacity="0.7" 
                d="M60 48.268C61.3333 49.0378 61.3333 50.9623 60 51.7321L25.5 71.6506C24.1667 72.4204 22.5 71.4582 22.5 69.9186L22.5 30.0814C22.5 28.5418 24.1667 27.5796 25.5 28.3494L60 48.268Z" fill="#6358FF"
            />
            <path 
                id="dark2" 
                opacity="0.7" 
                d="M42 48.268C43.3333 49.0378 43.3333 50.9623 42 51.7321L7.5 71.6506C6.16666 72.4204 4.5 71.4582 4.5 69.9186L4.5 30.0814C4.5 28.5418 6.16667 27.5796 7.5 28.3494L42 48.268Z" fill="#6358FF"
            />
        </g>
        <g id="lightGroup">
            <path 
                id="light1" 
                opacity="0.7" 
                d="M42 48.268C43.3333 49.0378 43.3333 50.9623 42 51.7321L7.5 71.6506C6.16666 72.4204 4.5 71.4582 4.5 69.9186L4.5 30.0814C4.5 28.5418 6.16667 27.5796 7.5 28.3494L42 48.268Z" fill="#43C4ED"
            />
        </g>
    </g>
<defs>
<clipPath id="clip0_2_2">
<rect width="120" height="100" fill="white"/>
</clipPath>
</defs>
</svg>
